<svg xmlns="http://www.w3.org/2000/svg" viewBox="0 0 738.73 141.68"><title>Asset 2</title><g id="Layer_2" data-name="Layer 2"><g id="Layer_1_copy_4" data-name="Layer 1 copy 4"><path d="M612.13,70.75c0-22.11,14.85-40,35.32-44.23V0c-41.6,3.86-71.92,33-71.92,70.75s30.24,67,71.92,70.93V115.14C626.92,110.83,612.13,93,612.13,70.75Z"/><path d="M668.45.18V26.92c19.84,4.88,33.68,22.3,33.68,44.43a44.39,44.39,0,0,1-33.68,43.42v26.75c18.06-2,34.57-8.75,46.68-19.36,14.6-12.6,23.6-32,23.6-50.4C738.73,33.24,709.8,4.67,668.45.18Z"/><rect x="492.45" y="53.75" width="58.13" height="27"/><rect x="492.45" y="4.15" width="68.33" height="27"/><rect x="492.45" y="110.55" width="68.33" height="27"/><rect x="438.78" y="4.15" width="32.67" height="133.4"/><path d="M389.06,15.95c-12.8-8.6-27-11.8-51.4-11.8H324.45v27h12.81c27.2,0,42.4,14.4,42.4,39.6,0,25.4-15.2,39.8-42.4,39.8H324.45v27h12.41c22.4,0,38.4-4,51.6-13.2,17.6-12,27.8-32.2,27.8-54.6C416.25,47.55,406.06,27.55,389.06,15.95Z"/><rect x="270.26" y="4.15" width="33.19" height="133.4"/><rect x="207.8" y="4.15" width="33.4" height="133.4"/><polygon points="0 137.55 33.4 137.55 33.4 100.47 0 28.78 0 137.55"/><polygon points="144.8 99.83 144.8 137.55 178.2 137.55 178.2 28.14 144.8 99.83"/><path d="M166.53,4.15H134.2l-36.4,77-3.8,8-3.2,7.2-1.2,2.8c-1.4-3.8-4.4-10.6-7.6-17.8L44.6,4.15H11.37L32.44,49.37l0-.43,2,4.4c1,1.8,2,3.8,2.8,5.6,1.2,2.4,2.2,4.6,3.4,6.8L75,137.55h29l31.47-66.6,0-.08Z"/></g></g></svg>