<?xml version="1.0" encoding="utf-8"?>
<!-- Generator: Adobe Illustrator 21.1.0, SVG Export Plug-In . SVG Version: 6.00 Build 0)  -->
<svg version="1.1" id="Layer_1" xmlns="http://www.w3.org/2000/svg" xmlns:xlink="http://www.w3.org/1999/xlink" x="0px" y="0px"
	 viewBox="0 0 738.7 141.7" style="enable-background:new 0 0 738.7 141.7;" xml:space="preserve">
<style type="text/css">
	.st0{fill:#FFFFFF;}
</style>
<title>Asset 2</title>
<g id="Layer_2">
	<g id="Layer_1_copy_4">
		<path class="st0" d="M612.1,70.8c0-22.1,14.8-40,35.3-44.2V0c-41.6,3.9-71.9,33-71.9,70.8s30.2,67,71.9,70.9v-26.5
			C626.9,110.8,612.1,93,612.1,70.8z"/>
		<path class="st0" d="M668.5,0.2v26.7c19.8,4.9,33.7,22.3,33.7,44.4c0.2,20.5-13.8,38.5-33.7,43.4v26.7c18.1-2,34.6-8.8,46.7-19.4
			c14.6-12.6,23.6-32,23.6-50.4C738.7,33.2,709.8,4.7,668.5,0.2z"/>
		<rect x="492.5" y="53.8" class="st0" width="58.1" height="27"/>
		<rect x="492.5" y="4.2" class="st0" width="68.3" height="27"/>
		<rect x="492.5" y="110.6" class="st0" width="68.3" height="27"/>
		<rect x="438.8" y="4.2" class="st0" width="32.7" height="133.4"/>
		<path class="st0" d="M389.1,15.9c-12.8-8.6-27-11.8-51.4-11.8h-13.2v27h12.8c27.2,0,42.4,14.4,42.4,39.6
			c0,25.4-15.2,39.8-42.4,39.8h-12.8v27h12.4c22.4,0,38.4-4,51.6-13.2c17.6-12,27.8-32.2,27.8-54.6
			C416.2,47.5,406.1,27.5,389.1,15.9z"/>
		<rect x="270.3" y="4.2" class="st0" width="33.2" height="133.4"/>
		<rect x="207.8" y="4.2" class="st0" width="33.4" height="133.4"/>
		<polygon class="st0" points="0,137.6 33.4,137.6 33.4,100.5 0,28.8 		"/>
		<polygon class="st0" points="144.8,99.8 144.8,137.6 178.2,137.6 178.2,28.1 		"/>
		<path class="st0" d="M166.5,4.2h-32.3l-36.4,77l-3.8,8l-3.2,7.2l-1.2,2.8c-1.4-3.8-4.4-10.6-7.6-17.8L44.6,4.2H11.4l21.1,45.2
			v-0.4l2,4.4c1,1.8,2,3.8,2.8,5.6c1.2,2.4,2.2,4.6,3.4,6.8L75,137.6h29L135.5,71v-0.1L166.5,4.2z"/>
	</g>
</g>
</svg>
